<svg width="600" height="262" viewBox="0 0 600 262" font-family="PC Sans"><defs><marker id="arrB-1202-04" markerUnits="userSpaceOnUse" markerWidth="13" markerHeight="11" refX="11" refY="5.5" orient="auto"><path d="M0,0 L13,5.5 L0,11 Z" fill="#147D6F"/></marker></defs>
      <defs>
        <radialGradient id="s4sun-1202-04" cx="0.4" cy="0.4" r="0.6"><stop offset="0" stop-color="#FFF6D6"/><stop offset="0.5" stop-color="#F6D27A"/><stop offset="1" stop-color="#E8940A"/></radialGradient>
        <linearGradient id="s4disk-1202-04" x1="0" y1="0" x2="1" y2="0"><stop offset="0" stop-color="#E0603A"/><stop offset="0.45" stop-color="#B98A5E"/><stop offset="1" stop-color="#8FC5E6"/></linearGradient>
        <radialGradient id="s4earth-1202-04" cx="0.35" cy="0.35" r="0.7"><stop offset="0" stop-color="#8FC5E6"/><stop offset="1" stop-color="#2E6690"/></radialGradient>
        <radialGradient id="s4jup-1202-04" cx="0.35" cy="0.35" r="0.7"><stop offset="0" stop-color="#F3E4D0"/><stop offset="1" stop-color="#B98A5E"/></radialGradient>
      </defs>
      <rect width="600" height="262" rx="10" fill="#0B1430"/>
      <text x="300" y="20" text-anchor="middle" font-size="12" font-weight="900" fill="#FFF6D6">약 50억 년 전 — 성운이 수축해 원반이 되고, 거리에 따라 다른 행성이 자랐다</text>
      <!-- 위: 세 단계 -->
      <g transform="translate(70,84)">
        <circle r="34" fill="#7B6AAE" opacity="0.5"/><circle cx="-10" cy="-10" r="24" fill="#7B6AAE" opacity="0.5"/>
        <g stroke="#7FD6C6" stroke-width="1.4" fill="none"><path d="M-30,-30 L-10,-10" marker-end="url(#arrB-1202-04)"/><path d="M30,-30 L10,-10" marker-end="url(#arrB-1202-04)"/><path d="M-30,30 L-10,10" marker-end="url(#arrB-1202-04)"/><path d="M30,30 L10,10" marker-end="url(#arrB-1202-04)"/></g>
        <text y="54" text-anchor="middle" font-size="10" font-weight="900" fill="#FFF6D6">① 태양계 성운 수축</text>
        <text y="67" text-anchor="middle" font-size="9" font-weight="700" fill="#C9D3DC">초신성 유산 + 수소·헬륨</text>
      </g>
      <path d="M118,84 h20" stroke="#7FD6C6" stroke-width="2.2" marker-end="url(#arrB-1202-04)"/>
      <g transform="translate(220,84)">
        <ellipse rx="66" ry="14" fill="url(#s4disk-1202-04)" opacity="0.85"/>
        <circle r="12" fill="url(#s4sun-1202-04)"/>
        <path d="M-56,-18 a58,20 0 0 0 30,24" fill="none" stroke="#7FD6C6" stroke-width="1.4" marker-end="url(#arrB-1202-04)"/>
        <g fill="#8A949E"><circle cx="-36" cy="4" r="2"/><circle cx="-24" cy="-3" r="2"/><circle cx="34" cy="3" r="2"/><circle cx="48" cy="-2" r="2"/><circle cx="18" cy="6" r="2"/></g>
        <text y="54" text-anchor="middle" font-size="10" font-weight="900" fill="#FFF6D6">② 회전 원반 + 원시 태양</text>
        <text y="67" text-anchor="middle" font-size="9" font-weight="700" fill="#C9D3DC">티끌이 뭉쳐 미행성체(수 km)</text>
      </g>
      <path d="M296,84 h20" stroke="#7FD6C6" stroke-width="2.2" marker-end="url(#arrB-1202-04)"/>
      <g transform="translate(440,84)">
        <circle cx="-110" cy="0" r="20" fill="url(#s4sun-1202-04)"/>
        <g fill="#B98A5E"><circle cx="-76" cy="0" r="3"/><circle cx="-60" cy="0" r="4"/><circle cx="-42" cy="0" r="4.5"/><circle cx="-26" cy="0" r="3.5"/></g>
        <circle cx="-42" cy="0" r="4.5" fill="url(#s4earth-1202-04)"/>
        <g><circle cx="10" cy="0" r="16" fill="url(#s4jup-1202-04)"/><circle cx="52" cy="0" r="13" fill="url(#s4jup-1202-04)"/><ellipse cx="52" cy="0" rx="22" ry="4" fill="none" stroke="#E9EDF1" stroke-width="1.5"/><circle cx="90" cy="0" r="9" fill="#8FC5E6"/><circle cx="118" cy="0" r="9" fill="#3B6FE0"/></g>
        <g stroke="#D6455D" stroke-width="1.2" stroke-dasharray="3 2"><line x1="-14" y1="-26" x2="-14" y2="26"/></g>
        <text x="-56" y="-30" text-anchor="middle" font-size="9" font-weight="900" fill="#E0603A">뜨겁다 → 금속·암석만</text>
        <text x="64" y="-30" text-anchor="middle" font-size="9" font-weight="900" fill="#8FC5E6">차갑다 → 얼음·기체까지</text>
        <text x="-56" y="40" text-anchor="middle" font-size="10" font-weight="900" fill="#FFF6D6">지구형 — 작고 밀도 큼</text>
        <text x="64" y="40" text-anchor="middle" font-size="10" font-weight="900" fill="#FFF6D6">목성형 — 크고 밀도 작음</text>
        <text x="0" y="60" text-anchor="middle" font-size="10" font-weight="900" fill="#FFF6D6">③ 미행성체 충돌·성장 → 행성</text>
      </g>
      <!-- 아래: 초기 지구 -->
      <g transform="translate(300,196)">
        <g transform="translate(-150,0)"><circle r="34" fill="#E0603A"/><path d="M-20,-14 q10,-8 20,0 q6,10 -4,16 q-14,4 -16,-16 z" fill="#FFB56B" opacity="0.8"/><g fill="#8A949E"><circle cx="-44" cy="-30" r="4"/><circle cx="46" cy="-26" r="3"/></g><g stroke="#8A949E" stroke-width="1.2"><line x1="-41" y1="-27" x2="-30" y2="-16"/><line x1="43" y1="-23" x2="32" y2="-14"/></g></g>
        <text x="-150" y="52" text-anchor="middle" font-size="9.5" font-weight="900" fill="#FFF6D6">충돌열 → 마그마 바다</text>
        <path d="M-100,0 h24" stroke="#7FD6C6" stroke-width="2.2" marker-end="url(#arrB-1202-04)"/>
        <g transform="translate(-30,0)"><circle r="34" fill="#B98A5E"/><circle r="22" fill="#E0603A"/><circle r="11" fill="#8A949E"/><text y="4" text-anchor="middle" font-size="7.5" font-weight="900" fill="#FFFFFF">철 핵</text></g>
        <text x="-30" y="52" text-anchor="middle" font-size="9.5" font-weight="900" fill="#FFF6D6">철은 핵으로, 가벼운 것은 맨틀·지각</text>
        <path d="M20,0 h24" stroke="#7FD6C6" stroke-width="2.2" marker-end="url(#arrB-1202-04)"/>
        <g transform="translate(110,0)"><circle r="34" fill="url(#s4earth-1202-04)"/><path d="M-18,-10 q10,-8 18,-2 q6,10 -4,16 q-12,4 -14,-14 z M8,10 q10,-2 12,8 q-8,8 -12,-8 z" fill="#7FA86B" opacity="0.9"/><g stroke="#8FC5E6" stroke-width="1.4" stroke-linecap="round"><line x1="-10" y1="-44" x2="-13" y2="-36"/><line x1="0" y1="-46" x2="-3" y2="-38"/><line x1="10" y1="-44" x2="7" y2="-36"/></g></g>
        <text x="120" y="52" text-anchor="middle" font-size="9.5" font-weight="900" fill="#FFF6D6">식어 비 → 원시 바다</text>
      </g>
    </svg>