<svg width="600" height="256" viewBox="0 0 600 256" font-family="PC Sans"><defs><marker id="axP-1303-01" markerUnits="userSpaceOnUse" markerWidth="11" markerHeight="9" refX="9" refY="4.5" orient="auto"><path d="M0,0 L11,4.5 L0,9 Z" fill="#5B6B77"/></marker></defs>
      <defs>
        <radialGradient id="y1earth-1303-01" cx="0.35" cy="0.35" r="0.7"><stop offset="0" stop-color="#8FC5E6"/><stop offset="1" stop-color="#2E6690"/></radialGradient>
        <radialGradient id="y1moon-1303-01" cx="0.4" cy="0.4" r="0.7"><stop offset="0" stop-color="#F1EEE6"/><stop offset="1" stop-color="#B7B2A6"/></radialGradient>
      </defs>
      <rect width="600" height="256" rx="10" fill="#0B1430"/>
      <text x="300" y="20" text-anchor="middle" font-size="14" font-weight="900" fill="#FFF6D6">어디에 서 있든 중력은 지구 중심을 향한다 — 그리고 달에서는 저울 숫자만 줄어든다</text>
      <!-- 지구 -->
      <g transform="translate(150,138)">
        <circle r="74" fill="url(#y1earth-1303-01)"/>
        <path d="M-50,-30 q20,-18 46,-6 q14,20 -8,34 q-30,8 -38,-28 z M14,20 q22,-6 30,16 q-18,16 -30,-16 z" fill="#7FA86B"/>
        <!-- 네 사람 + 화살표(중심 쪽) -->
        <g stroke="#FFF6D6" stroke-width="2.2" stroke-linecap="round" fill="none">
          <g transform="translate(0,-74)"><circle cy="-16" r="4" fill="#FFF6D6" stroke="none"/><path d="M0,-12 v10 M0,-2 l-4,8 M0,-2 l4,8"/></g>
          <g transform="translate(0,74) rotate(180)"><circle cy="-16" r="4" fill="#FFF6D6" stroke="none"/><path d="M0,-12 v10 M0,-2 l-4,8 M0,-2 l4,8"/></g>
          <g transform="translate(-74,0) rotate(-90)"><circle cy="-16" r="4" fill="#FFF6D6" stroke="none"/><path d="M0,-12 v10 M0,-2 l-4,8 M0,-2 l4,8"/></g>
          <g transform="translate(74,0) rotate(90)"><circle cy="-16" r="4" fill="#FFF6D6" stroke="none"/><path d="M0,-12 v10 M0,-2 l-4,8 M0,-2 l4,8"/></g>
        </g>
        <g stroke="#F6D27A" stroke-width="2.4" fill="none">
          <path d="M0,-60 v26" marker-end="url(#axP-1303-01)"/><path d="M0,60 v-26" marker-end="url(#axP-1303-01)"/><path d="M-60,0 h26" marker-end="url(#axP-1303-01)"/><path d="M60,0 h-26" marker-end="url(#axP-1303-01)"/>
        </g>
        <circle r="5" fill="#F6D27A"/>
        <text x="0" y="-100" text-anchor="middle" font-size="13" font-weight="900" fill="#FFF6D6">거꾸로 서도 떨어지지 않는다</text>
        <text x="0" y="108" text-anchor="middle" font-size="13" font-weight="900" fill="#F6D27A">노란 화살 = 중력 = 연직 아래(지구 중심)</text>
      </g>
      <!-- 저울 비교 -->
      <g transform="translate(385,70)">
        <rect x="-65" y="-20" width="130" height="178" rx="6" fill="#FDFBF7" stroke="#D9DFF5"/>
        <text x="0" y="-2" text-anchor="middle" font-size="13.5" font-weight="900" fill="#2E3E96">지구에서</text>
        <g transform="translate(0,56)" stroke="#2B2B2B" stroke-width="2.4" stroke-linecap="round" fill="none"><circle cy="-28" r="5" fill="#2B2B2B" stroke="none"/><path d="M0,-22 v18 M0,-4 l-6,14 M0,-4 l6,14 M0,-18 l-8,8 M0,-18 l8,8"/></g>
        <rect x="-30" y="72" width="60" height="14" rx="4" fill="#5B6B77"/><rect x="-16" y="76" width="32" height="7" rx="2" fill="#E9F2FB"/>
        <text x="0" y="106" text-anchor="middle" font-size="13" font-weight="900" fill="#3A3A3A">질량 60 kg</text>
        <text x="0" y="125" text-anchor="middle" font-size="13.5" font-weight="900" fill="#2E3E96">무게 약 588 N</text>
        <text x="0" y="144" text-anchor="middle" font-size="13" font-weight="700" fill="#5B6B77">1 kg당 약 9.8 N</text>
      </g>
      <g transform="translate(524,70)">
        <rect x="-68" y="-20" width="136" height="178" rx="6" fill="#FDFBF7" stroke="#D9DFF5"/>
        <text x="0" y="-2" text-anchor="middle" font-size="13.5" font-weight="900" fill="#2E3E96">달에서</text>
        <circle cx="0" cy="26" r="14" fill="url(#y1moon-1303-01)"/>
        <g transform="translate(0,66)" stroke="#2B2B2B" stroke-width="2.4" stroke-linecap="round" fill="none"><circle cy="-28" r="5" fill="#2B2B2B" stroke="none"/><path d="M0,-22 v18 M0,-4 l-6,14 M0,-4 l6,14 M0,-18 l-8,8 M0,-18 l8,8"/></g>
        <rect x="-30" y="82" width="60" height="14" rx="4" fill="#5B6B77"/><rect x="-16" y="86" width="32" height="7" rx="2" fill="#E9F2FB"/>
        <text x="0" y="110" text-anchor="middle" font-size="13" font-weight="900" fill="#3A3A3A">질량 60 kg — 그대로</text>
        <text x="0" y="129" text-anchor="middle" font-size="13.5" font-weight="900" fill="#D6455D">무게 약 98 N — 1/6</text>
        <text x="0" y="148" text-anchor="middle" font-size="13" font-weight="700" fill="#5B6B77">달이 덜 당길 뿐</text>
      </g>
    </svg>