<svg width="600" height="262" viewBox="0 0 600 262" font-family="PC Sans"><defs><marker id="arrP-2102-01" markerWidth="8" markerHeight="8" refX="6" refY="3" orient="auto" markerUnits="userSpaceOnUse"><path d="M0,0 L7,3 L0,6 Z" fill="#C1521E"/></marker></defs>
      <defs>
        <linearGradient id="f1sky-2102-01" x1="0" y1="0" x2="0" y2="1"><stop offset="0" stop-color="#D6EBF6"/><stop offset="1" stop-color="#EEF6EE"/></linearGradient>
        <clipPath id="f1clip-2102-01"><rect width="600" height="262" rx="10"/></clipPath>
        <g id="f1bug-2102-01">
          <g stroke="#2B2B2B" stroke-width="2" stroke-linecap="round">
            <line x1="-16" y1="-9" x2="-28" y2="-17"/><line x1="16" y1="-9" x2="28" y2="-17"/>
            <line x1="-21" y1="2" x2="-33" y2="3"/><line x1="21" y1="2" x2="33" y2="3"/>
            <line x1="-15" y1="12" x2="-26" y2="22"/><line x1="15" y1="12" x2="26" y2="22"/>
            <line x1="-4" y1="-25" x2="-9" y2="-33"/><line x1="4" y1="-25" x2="9" y2="-33"/>
          </g>
          <circle cy="-19" r="8" fill="#2B2B2B"/>
          <ellipse rx="22" ry="20" fill="currentColor" stroke="#5A3A1A" stroke-width="1.2"/>
          <line x1="0" y1="-20" x2="0" y2="20" stroke="#5A3A1A" stroke-width="1.2"/>
        </g>
        <g id="f1s4-2102-01" fill="#2B2B2B"><circle cx="-9" cy="-6" r="3.6"/><circle cx="9" cy="-6" r="3.6"/><circle cx="-8" cy="8" r="3.2"/><circle cx="8" cy="8" r="3.2"/></g>
        <g id="f1s6-2102-01" fill="#2B2B2B"><circle cx="-8" cy="-9" r="3"/><circle cx="8" cy="-9" r="3"/><circle cx="-11" cy="2" r="2.8"/><circle cx="11" cy="2" r="2.8"/><circle cx="-7" cy="12" r="2.6"/><circle cx="7" cy="12" r="2.6"/></g>
        <g id="f1s2r-2102-01" fill="#E85D3A"><circle cx="-8" cy="-1" r="5"/><circle cx="8" cy="-1" r="5"/></g>
      </defs>
      <g clip-path="url(#f1clip-2102-01)">
        <rect width="600" height="262" fill="url(#f1sky-2102-01)"/>
        <path d="M0,150 Q100,138 200,150 T400,150 T600,150 L600,262 L0,262 Z" fill="#BFDCA4"/>
        <path d="M0,236 Q300,224 600,236 L600,262 L0,262 Z" fill="#A9CC8E"/>
        <g stroke="#8DB673" stroke-width="2" stroke-linecap="round" fill="none">
          <path d="M20,150 q3,-12 6,0 M28,150 q3,-9 6,0"/><path d="M290,151 q3,-12 6,0 M298,151 q3,-9 6,0"/><path d="M572,150 q3,-12 6,0 M580,150 q3,-9 6,0"/>
        </g>
      </g>
      <!-- 왼쪽: 같은 종의 변이 -->
      <text x="150" y="26" text-anchor="middle" font-size="13" font-weight="900" fill="#C1521E">같은 종의 무당벌레 — 무늬가 서로 다르다</text>
      <text x="150" y="42" text-anchor="middle" font-size="11" fill="#5B6B77">변이 = 같은 종의 개체 사이에서 나타나는 형질의 차이</text>
      <g transform="translate(45,118)"><use href="#f1bug-2102-01" color="#E85D3A"/><use href="#f1s4-2102-01"/></g>
      <g transform="translate(115,118)"><use href="#f1bug-2102-01" color="#E8940A"/><use href="#f1s6-2102-01"/></g>
      <g transform="translate(185,118)"><use href="#f1bug-2102-01" color="#2B2B2B"/><use href="#f1s2r-2102-01"/></g>
      <g transform="translate(255,118)"><use href="#f1bug-2102-01" color="#E85D3A"/></g>
      <g font-size="11" font-weight="800" fill="#2B2B2B" text-anchor="middle">
        <text x="45" y="166">붉은 바탕</text><text x="45" y="180">점 4개</text>
        <text x="115" y="166">주황 바탕</text><text x="115" y="180">점 6개</text>
        <text x="185" y="166">검은 바탕</text><text x="185" y="180">붉은 점 2개</text>
        <text x="255" y="166">붉은 바탕</text><text x="255" y="180">무늬 없음</text>
      </g>
      <text x="150" y="206" text-anchor="middle" font-size="11" fill="#3A3A3A">운동으로 커진 근육처럼 환경 때문에 생긴 차이는</text>
      <text x="150" y="221" text-anchor="middle" font-size="11" fill="#3A3A3A">자손에게 전달되지 않는다.</text>
      <text x="150" y="240" text-anchor="middle" font-size="11" font-weight="800" fill="#B4560E">자손에게 전달되는 유전적 변이만 진화의 재료가 된다</text>
      <line x1="300" y1="14" x2="300" y2="248" stroke="#B8C2CA" stroke-width="1" stroke-dasharray="4 3"/>
      <!-- 오른쪽: 유전적 변이의 두 경로 -->
      <text x="452" y="26" text-anchor="middle" font-size="13" font-weight="900" fill="#C1521E">유전적 변이가 생기는 두 경로</text>
      <text x="452" y="42" text-anchor="middle" font-size="11" fill="#5B6B77">부모의 유전자가 자손에게 전달되는 과정에서</text>
      <g transform="translate(392,84)"><use href="#f1bug-2102-01" color="#E85D3A"/><use href="#f1s4-2102-01"/></g>
      <g transform="translate(512,84)"><use href="#f1bug-2102-01" color="#E8940A"/><use href="#f1s6-2102-01"/></g>
      <text x="452" y="88" text-anchor="middle" font-size="11" font-weight="800" fill="#5B6B77">부모</text>
      <g stroke="#C1521E" stroke-width="1.8" fill="none">
        <path d="M392,108 L392,124 L512,124 L512,108"/>
        <line x1="372" y1="124" x2="532" y2="124"/>
      </g>
      <g stroke="#C1521E" stroke-width="1.8">
        <line x1="372" y1="124" x2="372" y2="146" marker-end="url(#arrP-2102-01)"/>
        <line x1="447" y1="124" x2="447" y2="146" marker-end="url(#arrP-2102-01)"/>
        <line x1="532" y1="124" x2="532" y2="146" marker-end="url(#arrP-2102-01)"/>
      </g>
      <g transform="translate(372,180)"><use href="#f1bug-2102-01" color="#E85D3A"/><use href="#f1s6-2102-01"/></g>
      <g transform="translate(447,180)"><use href="#f1bug-2102-01" color="#E8940A"/><use href="#f1s4-2102-01"/></g>
      <g transform="translate(532,180)"><use href="#f1bug-2102-01" color="#F3C24E"/><rect x="-21" y="-5" width="42" height="9" fill="#2B2B2B"/></g>
      <g transform="translate(560,152)" fill="#D6455D"><path d="M0,-9 L2.5,-3 L9,-3 L4,1 L6,8 L0,4 L-6,8 L-4,1 L-9,-3 L-2.5,-3 Z"/></g>
      <text x="410" y="222" text-anchor="middle" font-size="11" font-weight="800" fill="#C1521E">유성 생식</text>
      <text x="410" y="237" text-anchor="middle" font-size="11" fill="#2B2B2B">부모 유전자의 새로운 조합</text>
      <text x="535" y="222" text-anchor="middle" font-size="11" font-weight="800" fill="#D6455D">돌연변이</text>
      <text x="535" y="237" text-anchor="middle" font-size="11" fill="#2B2B2B">DNA 변화 → 새 유전자</text>
    </svg>