<svg width="600" height="282" viewBox="0 0 600 282" font-family="PC Sans"><defs><marker id="arrP-2102-04" markerWidth="8" markerHeight="8" refX="6" refY="3" orient="auto" markerUnits="userSpaceOnUse"><path d="M0,0 L7,3 L0,6 Z" fill="#C1521E"/></marker></defs>
      <defs>
        <linearGradient id="f4sky-2102-04" x1="0" y1="0" x2="0" y2="1"><stop offset="0" stop-color="#CFE6F5"/><stop offset="1" stop-color="#EAF4F8"/></linearGradient>
        <clipPath id="f4clip-2102-04"><rect width="600" height="282" rx="10"/></clipPath>
        <g id="f4pine-2102-04"><rect x="-2.5" y="-6" width="5" height="10" fill="#7A5A3A"/><path d="M-14,-6 L0,-40 L14,-6 Z" fill="#4E8C5A"/><path d="M-11,-18 L0,-46 L11,-18 Z" fill="#5EA06A"/></g>
        <g id="f4oak-2102-04"><rect x="-2.5" y="-10" width="5" height="12" fill="#7A5A3A"/><circle cy="-20" r="13" fill="#6FA35C"/><circle cx="-9" cy="-14" r="8" fill="#7FB56C"/><circle cx="9" cy="-14" r="8" fill="#7FB56C"/></g>
        <g id="f4bug-2102-04"><ellipse rx="11" ry="10" fill="currentColor" stroke="#5A3A1A" stroke-width="1"/><circle cy="-9.5" r="4" fill="#2B2B2B"/><line x1="0" y1="-10" x2="0" y2="10" stroke="#5A3A1A" stroke-width="1"/></g>
        <g id="f4lens-2102-04"><circle r="46" fill="#FFFFFF" stroke="#5B6B77" stroke-width="3"/><line x1="33" y1="33" x2="54" y2="54" stroke="#5B6B77" stroke-width="7" stroke-linecap="round"/></g>
      </defs>
      <g clip-path="url(#f4clip-2102-04)">
        <rect width="600" height="282" fill="url(#f4sky-2102-04)"/>
        <path d="M0,172 L60,128 L120,160 L180,120 L240,158 L300,132 L360,164 L420,136 L480,166 L540,140 L600,168 L600,180 L0,180 Z" fill="#B9CBD8"/>
        <rect y="170" width="240" height="112" fill="#9CC48A"/>
        <rect x="235" y="170" width="100" height="112" fill="#B7D39A"/>
        <path d="M250,170 Q272,222 246,282 L286,282 Q312,222 290,170 Z" fill="#6FB1D6"/>
        <path d="M262,182 Q276,215 258,262" fill="none" stroke="#9FD0EA" stroke-width="2"/>
        <path d="M330,182 Q385,146 445,182 L445,282 L330,282 Z" fill="#E8D18A"/>
        <path d="M380,190 Q420,166 450,190 L450,282 L380,282 Z" fill="#DEC377"/>
        <rect x="440" y="170" width="95" height="112" fill="#B9A98A"/>
        <g fill="#8E7B5C"><circle cx="460" cy="205" r="1.8"/><circle cx="480" cy="228" r="1.8"/><circle cx="500" cy="212" r="1.8"/><circle cx="470" cy="250" r="1.8"/><circle cx="515" cy="240" r="1.8"/><circle cx="492" cy="262" r="1.8"/></g>
        <path d="M528,170 L600,170 L600,282 L540,282 Q520,226 528,170 Z" fill="#5FA8D3"/>
        <g stroke="#A9D4EA" stroke-width="2" fill="none" stroke-linecap="round"><path d="M550,200 q6,-4 12,0 q6,4 12,0"/><path d="M560,232 q6,-4 12,0 q6,4 12,0"/><path d="M548,262 q6,-4 12,0 q6,4 12,0"/></g>
        <!-- 숲의 나무들 -->
        <use href="#f4pine-2102-04" x="24" y="230"/><use href="#f4oak-2102-04" x="60" y="240"/><use href="#f4pine-2102-04" x="98" y="222"/><use href="#f4oak-2102-04" x="140" y="236"/><use href="#f4pine-2102-04" x="178" y="228"/><use href="#f4oak-2102-04" x="214" y="244"/>
        <use href="#f4pine-2102-04" x="46" y="268"/><use href="#f4oak-2102-04" x="118" y="270"/><use href="#f4pine-2102-04" x="196" y="270"/>
        <!-- 숲의 무당벌레(유전적 다양성의 대상) -->
        <g transform="translate(140,206) scale(0.55)"><use href="#f4bug-2102-04" color="#E85D3A"/></g>
        <!-- 초지의 동물(종 다양성의 대상) -->
        <g transform="translate(305,214)">
          <ellipse cx="0" cy="4" rx="9" ry="6" fill="#B8B8B8"/><circle cx="8" cy="-1" r="4" fill="#B8B8B8"/><path d="M6,-4 l-1,-9 M10,-4 l2,-9" stroke="#B8B8B8" stroke-width="2.4" stroke-linecap="round"/>
        </g>
        <g transform="translate(318,196)"><ellipse rx="6" ry="4" fill="#4C86B0"/><path d="M-2,-2 l-6,-6 l8,3 Z" fill="#3B6E94"/><path d="M6,0 l4,-1 l-4,2 Z" fill="#E8940A"/></g>
        <g transform="translate(292,236)"><circle r="3" fill="#F3C24E"/><g fill="#D6455D"><circle cx="0" cy="-5" r="2.6"/><circle cx="5" cy="-1" r="2.6"/><circle cx="3" cy="5" r="2.6"/><circle cx="-3" cy="5" r="2.6"/><circle cx="-5" cy="-1" r="2.6"/></g></g>
      </g>
      <!-- 렌즈 ①: 유전적 다양성 -->
      <text x="110" y="20" text-anchor="middle" font-size="14" font-weight="900" fill="#C1521E">유전적 다양성</text>
      <text x="110" y="35" text-anchor="middle" font-size="13" fill="#5B6B77">같은 종 안의 유전자(변이)의 차이</text>
      <line x1="120" y1="136" x2="140" y2="200" stroke="#5B6B77" stroke-width="1.6" stroke-dasharray="4 3"/>
      <g transform="translate(110,94)">
        <use href="#f4lens-2102-04"/>
        <g transform="translate(-24,0)"><use href="#f4bug-2102-04" color="#E85D3A"/><g fill="#2B2B2B"><circle cx="-4.5" cy="-3" r="1.8"/><circle cx="4.5" cy="-3" r="1.8"/><circle cx="-4" cy="4" r="1.6"/><circle cx="4" cy="4" r="1.6"/></g></g>
        <g><use href="#f4bug-2102-04" color="#E8940A"/><g fill="#2B2B2B"><circle cx="-4" cy="-4.5" r="1.5"/><circle cx="4" cy="-4.5" r="1.5"/><circle cx="-5.5" cy="1" r="1.4"/><circle cx="5.5" cy="1" r="1.4"/><circle cx="-3.5" cy="6" r="1.3"/><circle cx="3.5" cy="6" r="1.3"/></g></g>
        <g transform="translate(24,0)"><use href="#f4bug-2102-04" color="#2B2B2B"/><g fill="#E85D3A"><circle cx="-4" cy="0" r="2.5"/><circle cx="4" cy="0" r="2.5"/></g></g>
        <text y="29" text-anchor="middle" font-size="13" font-weight="800" fill="#3A3A3A">무당벌레</text>
      </g>
      <!-- 렌즈 ②: 종 다양성 -->
      <text x="330" y="20" text-anchor="middle" font-size="14" font-weight="900" fill="#C1521E">종 다양성</text>
      <text x="330" y="35" text-anchor="middle" font-size="13" fill="#5B6B77">종이 얼마나 많고 고르게 사는가</text>
      <line x1="322" y1="140" x2="308" y2="196" stroke="#5B6B77" stroke-width="1.6" stroke-dasharray="4 3"/>
      <g transform="translate(330,94)">
        <use href="#f4lens-2102-04"/>
        <g transform="translate(-20,-22)"><ellipse rx="9" ry="6" fill="#4C86B0"/><path d="M-3,-3 l-9,-8 l12,4 Z" fill="#3B6E94"/><path d="M9,0 l6,-1.5 l-6,3 Z" fill="#E8940A"/><circle cx="4" cy="-2" r="1.2" fill="#fff"/></g>
        <g transform="translate(18,-20)"><ellipse cy="4" rx="10" ry="7" fill="#B8B8B8"/><circle cx="9" cy="-2" r="5" fill="#B8B8B8"/><path d="M7,-6 l-1,-10 M11,-6 l2,-10" stroke="#B8B8B8" stroke-width="3" stroke-linecap="round"/><circle cx="11" cy="-3" r="1" fill="#2B2B2B"/></g>
        <g transform="translate(-18,8)"><line x1="0" y1="-8" x2="0" y2="8" stroke="#2B2B2B" stroke-width="1.5"/><path d="M0,-2 q-12,-14 -12,0 q0,8 12,2 Z" fill="#E8940A"/><path d="M0,-2 q12,-14 12,0 q0,8 -12,2 Z" fill="#E8940A"/></g>
        <g transform="translate(18,6)"><line x1="0" y1="0" x2="0" y2="10" stroke="#5E9A55" stroke-width="2"/><circle r="3.5" fill="#F3C24E"/><g fill="#D6455D"><circle cx="0" cy="-6" r="3"/><circle cx="6" cy="-2" r="3"/><circle cx="4" cy="5" r="3"/><circle cx="-4" cy="5" r="3"/><circle cx="-6" cy="-2" r="3"/></g></g>
        <text y="31" text-anchor="middle" font-size="13" font-weight="800" fill="#3A3A3A">여러 종</text>
      </g>
      <!-- 생태계 다양성 -->
      <text x="510" y="20" text-anchor="middle" font-size="14" font-weight="900" fill="#C1521E">생태계 다양성</text>
      <text x="510" y="35" text-anchor="middle" font-size="13" fill="#5B6B77">생태계 자체가 얼마나 다양한가</text>
      <text x="510" y="50" text-anchor="middle" font-size="13" fill="#5B6B77">숲 · 강 · 사막 · 갯벌 · 바다</text>
      <line x1="510" y1="58" x2="510" y2="152" stroke="#C1521E" stroke-width="2" marker-end="url(#arrP-2102-04)"/>
      <path d="M12,158 L12,164 L588,164 L588,158" fill="none" stroke="#C1521E" stroke-width="2"/>
      <g font-size="13.5" font-weight="900" fill="#2B2B2B" text-anchor="middle" paint-order="stroke" stroke="#FFFFFF" stroke-width="3.5">
        <text x="110" y="270">숲</text><text x="268" y="270">강</text><text x="392" y="270">사막</text><text x="488" y="270">갯벌</text><text x="566" y="270">바다</text>
      </g>
    </svg>