<svg width="600" height="242" viewBox="0 0 620 250" font-family="PC Sans">
      <defs>
        <clipPath id="f1clip-2201-01"><rect width="620" height="250" rx="10"/></clipPath>
        <linearGradient id="f1sky-2201-01" x1="0" y1="0" x2="0" y2="1"><stop offset="0" stop-color="#D2EAF7"/><stop offset="1" stop-color="#EEF6FB"/></linearGradient>
        <linearGradient id="f1water-2201-01" x1="0" y1="0" x2="0" y2="1"><stop offset="0" stop-color="#C4E3F3"/><stop offset="1" stop-color="#8CC0E0"/></linearGradient>
        <linearGradient id="f1beam-2201-01" x1="0" y1="0" x2="158" y2="0" gradientUnits="userSpaceOnUse"><stop offset="0" stop-color="#F6D27A"/><stop offset="1" stop-color="#E8940A" stop-opacity="0.75"/></linearGradient>
        <g id="f1fish-2201-01"><ellipse rx="18" ry="9" fill="#E8940A"/><path d="M15,0 l13,-9 v18 z" fill="#E8940A"/><path d="M-6,-8 q7,-7 12,0 z" fill="#D07F08"/><circle cx="-9" cy="-3" r="2" fill="#3B3B3B"/></g>
      </defs>
      <g clip-path="url(#f1clip-2201-01)">
        <rect width="620" height="250" fill="url(#f1sky-2201-01)"/>
        <rect y="78" width="620" height="150" fill="url(#f1water-2201-01)"/>
        <line x1="0" y1="78" x2="620" y2="78" stroke="#fff" stroke-width="1.5" opacity="0.8"/>
        <rect y="226" width="620" height="24" fill="#8C6E4E"/>
        <ellipse cx="520" cy="230" rx="14" ry="5" fill="#6E553B"/><ellipse cx="570" cy="232" rx="10" ry="4" fill="#6E553B"/>

        <!-- 태양과 빛 -->
        <g transform="translate(560,40)">
          <circle r="20" fill="#F3C24E"/>
          <g stroke="#F3C24E" stroke-width="3" stroke-linecap="round">
            <line y1="-28" y2="-36"/><line y1="28" y2="36"/><line x1="-28" x2="-36"/><line x1="28" x2="36"/>
            <line x1="-20" y1="-20" x2="-26" y2="-26"/><line x1="20" y1="20" x2="26" y2="26"/><line x1="-20" y1="20" x2="-26" y2="26"/><line x1="20" y1="-20" x2="26" y2="-26"/>
          </g>
        </g>
        <text x="518" y="44" text-anchor="end" font-size="12" font-weight="800" fill="#B4830A">햇빛</text>
        <g transform="translate(544,58) rotate(134) scale(0.62)">
          <path d="M0,-3 C50,-4.2 100,-5.6 124,-7 L124,-14 L156,0 L124,14 L124,7 C100,5.6 50,4.2 0,3 Z" fill="url(#f1beam-2201-01)"/>
        </g>

        <!-- 수초 -->
        <g stroke="#3E8F4A" stroke-width="3" fill="none" stroke-linecap="round">
          <path d="M400,226 C394,190 406,160 398,124"/><path d="M425,226 C431,186 419,150 427,116"/><path d="M450,226 C444,192 456,160 448,128"/>
        </g>
        <g fill="#5EAB5A">
          <ellipse cx="392" cy="190" rx="11" ry="4" transform="rotate(-35 392 190)"/><ellipse cx="408" cy="160" rx="11" ry="4" transform="rotate(35 408 160)"/><ellipse cx="392" cy="138" rx="9" ry="3.6" transform="rotate(-35 392 138)"/>
          <ellipse cx="434" cy="186" rx="11" ry="4" transform="rotate(35 434 186)"/><ellipse cx="416" cy="152" rx="11" ry="4" transform="rotate(-35 416 152)"/><ellipse cx="434" cy="128" rx="9" ry="3.6" transform="rotate(35 434 128)"/>
          <ellipse cx="442" cy="196" rx="11" ry="4" transform="rotate(-35 442 196)"/><ellipse cx="460" cy="164" rx="11" ry="4" transform="rotate(35 460 164)"/><ellipse cx="442" cy="140" rx="9" ry="3.6" transform="rotate(-35 442 140)"/>
        </g>
        <text x="425" y="108" text-anchor="middle" font-size="11.5" font-weight="800" fill="#2F7A3E">수초 개체군</text>

        <!-- 물벼룩 -->
        <g fill="#6B7A3A">
          <ellipse cx="330" cy="186" rx="3.2" ry="2.2"/><ellipse cx="342" cy="176" rx="3.2" ry="2.2"/><ellipse cx="354" cy="192" rx="3.2" ry="2.2"/><ellipse cx="338" cy="198" rx="3.2" ry="2.2"/><ellipse cx="362" cy="180" rx="3.2" ry="2.2"/><ellipse cx="348" cy="166" rx="3.2" ry="2.2"/>
        </g>
        <text x="346" y="214" text-anchor="middle" font-size="11.5" font-weight="800" fill="#4A5A2A">물벼룩 개체군</text>

        <!-- 붕어 개체군 -->
        <use href="#f1fish-2201-01" transform="translate(72,162)"/>
        <use href="#f1fish-2201-01" transform="translate(170,152)"/>
        <use href="#f1fish-2201-01" transform="translate(258,158)"/>
        <use href="#f1fish-2201-01" transform="translate(200,192)"/>
        <use href="#f1fish-2201-01" transform="translate(255,190)"/>
        <circle cx="72" cy="162" r="27" fill="none" stroke="#D6455D" stroke-width="2"/>
        <text x="38" y="205" font-size="11.5" font-weight="800" fill="#D6455D">① 개체 (붕어 한 마리)</text>

        <!-- 단계 상자 -->
        <rect x="30" y="116" width="272" height="94" rx="6" fill="none" stroke="#B4560E" stroke-width="1.8" stroke-dasharray="5 3"/>
        <text x="38" y="131" font-size="12" font-weight="800" fill="#B4560E">② 개체군 = 연못의 붕어 전부 (같은 종)</text>
        <rect x="18" y="92" width="452" height="126" rx="6" fill="none" stroke="#0F6357" stroke-width="1.8" stroke-dasharray="6 4"/>
        <text x="26" y="108" font-size="12" font-weight="800" fill="#0F6357">③ 군집 = 붕어·수초·물벼룩 개체군 전체 (생물만)</text>
        <rect x="4" y="4" width="612" height="242" rx="9" fill="none" stroke="#0F6357" stroke-width="2.4" stroke-dasharray="10 5"/>
        <text x="16" y="30" font-size="13" font-weight="900" fill="#0F6357">④ 생태계 = 군집 + 햇빛·물·흙 (비생물 환경까지 포함)</text>
        <text x="598" y="150" text-anchor="end" font-size="12" font-weight="800" fill="#1F4E70">물</text>
        <text x="598" y="244" text-anchor="end" font-size="12" font-weight="800" fill="#fff">흙</text>
      </g>
    </svg>