<svg width="600" height="242" viewBox="0 0 620 250" font-family="PC Sans"><defs><marker id="bigG-2204-03" markerUnits="userSpaceOnUse" markerWidth="16" markerHeight="16" refX="12" refY="8" orient="auto"><path d="M0,0 L16,8 L0,16 Z" fill="#5B6B77"/></marker><marker id="bigT-2204-03" markerUnits="userSpaceOnUse" markerWidth="16" markerHeight="16" refX="12" refY="8" orient="auto"><path d="M0,0 L16,8 L0,16 Z" fill="#147D6F"/></marker></defs>
      <g clip-path="url(#clipB)">
        <rect x="8" y="6" width="604" height="238" fill="url(#skyG)"/>
        <rect x="8" y="158" width="604" height="90" fill="url(#soilG)"/>
        <rect x="8" y="156" width="604" height="8" fill="#8FA86B"/>
        <!-- 태양과 광선 -->
        <circle cx="62" cy="48" r="34" fill="#F3C24E" opacity="0.2"/>
        <circle cx="62" cy="48" r="26" fill="url(#sunG)"/>
        <text x="62" y="20" text-anchor="middle" font-size="11" font-weight="800" fill="#B4830A">지금의 태양빛</text>
        <g transform="translate(84,64) rotate(48)"><path d="M0,-3 C40,-3.6 66,-4.4 80,-5.2 L80,-11 L100,0 L80,11 L80,5.2 C66,4.4 40,3.6 0,3 Z" fill="url(#beamG)"/></g>
        <!-- 벼 -->
        <g stroke="#5E9A3C" stroke-width="3" stroke-linecap="round" fill="none">
          <path d="M138,158 C136,140 134,126 136,112"/><path d="M150,158 C150,138 150,122 152,106"/><path d="M162,158 C164,140 166,126 166,112"/>
          <path d="M150,140 C140,134 134,130 128,132"/><path d="M151,128 C160,122 166,120 172,122"/>
        </g>
        <g fill="#E3C25A" stroke="#B4830A" stroke-width="0.8">
          <ellipse cx="134" cy="108" rx="4" ry="7" transform="rotate(-12 134 108)"/><ellipse cx="152" cy="102" rx="4" ry="7"/><ellipse cx="168" cy="108" rx="4" ry="7" transform="rotate(12 168 108)"/>
        </g>
        <text x="180" y="100" font-size="12" font-weight="900" fill="#0F6357">광합성</text>
        <text x="180" y="115" font-size="11" fill="#3A3A3A">빛 → 화학 에너지</text>
        <text x="180" y="129" font-size="10" fill="#3A3A3A">(포도당에 저장)</text>
        <!-- 먹이 사슬 화살표 -->
        <line x1="176" y1="148" x2="222" y2="148" stroke="#147D6F" stroke-width="3.5" marker-end="url(#bigT-2204-03)"/>
        <text x="200" y="152" text-anchor="middle" font-size="11" font-weight="800" fill="#0F6357">먹이 사슬</text>
        <!-- 사람 -->
        <circle cx="262" cy="106" r="11" fill="#F3D2B0" stroke="#B4834E" stroke-width="1"/>
        <path d="M262,117 L262,142 M262,142 L252,158 M262,142 L272,158 M262,124 L246,134 M262,124 L278,134" stroke="#2E6690" stroke-width="4" stroke-linecap="round" fill="none"/>
        <ellipse cx="244" cy="136" rx="7" ry="3.5" fill="#fff" stroke="#8A949E" stroke-width="1"/>
        <text x="262" y="80" text-anchor="middle" font-size="12" font-weight="900" fill="#B0483A">호흡</text>
        <text x="300" y="80" font-size="11" fill="#3A3A3A">화학 → 열 · 운동</text>
        <g transform="translate(280,116) rotate(-30) scale(0.55)"><path d="M0,0 C10,-6 16,6 26,0 C36,-6 42,6 52,0" fill="none" stroke="#D6455D" stroke-width="4" stroke-linecap="round"/><path d="M66,0 L52,-7 Q56,0 52,7 Z" fill="#D6455D"/></g>
        <text x="300" y="98" font-size="11" fill="#D6455D">체온(열)</text>
        <text x="300" y="132" font-size="11" fill="#2E6690">움직임(운동)</text>
        <!-- 옛 태양과 옛 식물 -->
        <circle cx="410" cy="52" r="16" fill="#F3C24E" opacity="0.55" stroke="#B4830A" stroke-width="1" stroke-dasharray="3 2"/>
        <text x="410" y="26" text-anchor="middle" font-size="11" font-weight="800" fill="#B4830A">수억 년 전의 태양빛</text>
        <g transform="translate(418,68) rotate(72)" opacity="0.65"><path d="M0,-2.4 C20,-2.8 36,-3.4 46,-4 L46,-8 L60,0 L46,8 L46,4 C36,3.4 20,2.8 0,2.4 Z" fill="url(#beamG)"/></g>
        <g stroke="#3F7D3A" stroke-width="3" stroke-linecap="round" fill="none">
          <path d="M440,158 C438,140 430,126 416,118"/><path d="M446,158 C450,138 460,128 474,124"/><path d="M443,158 C444,144 444,132 445,120"/>
          <path d="M426,132 l-8,-4 M430,142 l-9,-2 M462,134 l8,-6 M456,144 l9,-3"/>
        </g>
        <text x="498" y="140" font-size="11" fill="#3A3A3A">옛 생물의 광합성</text>
        <!-- 땅속으로 -->
        <line x1="444" y1="170" x2="444" y2="208" stroke="#fff" stroke-width="3.5" marker-end="url(#bigG-2204-03)"/>
        <text x="456" y="186" font-size="11" font-weight="800" fill="#fff">땅속에 묻혀</text>
        <text x="456" y="202" font-size="11" fill="#fff">열과 압력 · 수억 년</text>
        <text x="130" y="196" text-anchor="middle" font-size="11" fill="#fff">땅속 (단면)</text>
        <!-- 화석 연료 층 -->
        <rect x="360" y="216" width="244" height="20" rx="4" fill="#2B2B2B"/>
        <text x="482" y="230" text-anchor="middle" font-size="11" font-weight="800" fill="#fff">화석 연료 (석탄·석유·천연가스)</text>
        <!-- 화력 발전소 -->
        <line x1="580" y1="214" x2="580" y2="172" stroke="#fff" stroke-width="3.5" marker-end="url(#bigG-2204-03)"/>
        <rect x="506" y="118" width="96" height="42" fill="#98A4AE"/>
        <g fill="#FFF3B0"><rect x="514" y="130" width="12" height="10"/><rect x="534" y="130" width="12" height="10"/><rect x="554" y="130" width="12" height="10"/><rect x="574" y="130" width="12" height="10"/></g>
        <rect x="510" y="84" width="16" height="36" fill="#5B6B77"/>
        <g fill="#C7D0D6" opacity="0.9"><circle cx="520" cy="74" r="6"/><circle cx="514" cy="64" r="7"/></g>
        <text x="562" y="62" text-anchor="middle" font-size="12" font-weight="900" fill="#B4830A">화력 발전</text>
        <text x="562" y="78" text-anchor="middle" font-size="11" fill="#3A3A3A">태워서 → 전기 (05)</text>
        <line x1="602" y1="118" x2="602" y2="158" stroke="#5B6B77" stroke-width="2"/>
        <line x1="594" y1="124" x2="610" y2="124" stroke="#5B6B77" stroke-width="2"/>
      </g>
    </svg>