<svg width="600" height="250" viewBox="0 0 600 250" font-family="PC Sans"><defs><marker id="arrB-2301-01" markerUnits="userSpaceOnUse" markerWidth="14" markerHeight="14" refX="11" refY="7" orient="auto"><path d="M0,0 L14,7 L0,14 Z" fill="#4053B8"/></marker><marker id="arrRd-2301-01" markerUnits="userSpaceOnUse" markerWidth="14" markerHeight="14" refX="11" refY="7" orient="auto"><path d="M0,0 L14,7 L0,14 Z" fill="#D6455D"/></marker></defs>
      <defs>
        <linearGradient id="f1bg-2301-01" x1="0" y1="0" x2="0" y2="1"><stop offset="0" stop-color="#FCF0EB"/><stop offset="1" stop-color="#F5DCD1"/></linearGradient>
        <g id="f1bact-2301-01"><ellipse rx="20" ry="9" fill="#8E9ADF" stroke="#4053B8" stroke-width="1.4"/><path d="M20,0 q9,-4 14,-10 M20,3 q10,2 15,8 M-20,0 q-9,-4 -14,-10" stroke="#4053B8" stroke-width="1.3" fill="none" stroke-linecap="round"/><circle cx="-5" cy="0" r="3" fill="#2E3E96"/></g>
        <g id="f1vir-2301-01"><circle r="9" fill="#E5949E" stroke="#B0483A" stroke-width="1.2"/><g stroke="#B0483A" stroke-width="1.6" stroke-linecap="round"><line y1="-9" y2="-14"/><line y1="9" y2="14"/><line x1="-9" x2="-14"/><line x1="9" x2="14"/><line x1="6.5" y1="-6.5" x2="10" y2="-10"/><line x1="-6.5" y1="6.5" x2="-10" y2="10"/><line x1="6.5" y1="6.5" x2="10" y2="10"/><line x1="-6.5" y1="-6.5" x2="-10" y2="-10"/></g></g>
        <g id="f1virS-2301-01"><circle r="5" fill="#E5949E" stroke="#B0483A" stroke-width="1"/><g stroke="#B0483A" stroke-width="1.2" stroke-linecap="round"><line y1="-5" y2="-8"/><line y1="5" y2="8"/><line x1="-5" x2="-8"/><line x1="5" x2="8"/></g></g>
        <g id="f1pill-2301-01"><rect x="-22" y="-8" width="44" height="16" rx="8" fill="#fff" stroke="#B0483A" stroke-width="1.4"/><path d="M-22,0 a8,8 0 0 1 8,-8 h14 v16 h-14 a8,8 0 0 1 -8,-8 z" fill="#D6455D"/></g>
      </defs>
      <rect x="0" y="0" width="600" height="250" rx="10" fill="url(#f1bg-2301-01)"/>
      <text x="300" y="20" text-anchor="middle" font-size="13" font-weight="900" fill="#2E3E96">몸속에서 병원체가 늘어나는 방식과 항생제의 효과</text>
      <line x1="300" y1="32" x2="300" y2="242" stroke="#fff" stroke-width="2.5" stroke-dasharray="6 5"/>

      <!-- 세균 -->
      <text x="150" y="46" text-anchor="middle" font-size="12" font-weight="900" fill="#2E3E96">세균 — 스스로 분열하여 늘어난다</text>
      <text x="150" y="62" text-anchor="middle" font-size="11" fill="#5B6B77">결핵 · 콜레라 · 식중독</text>
      <use href="#f1bact-2301-01" x="55" y="108"/>
      <line x1="88" y1="108" x2="112" y2="108" stroke="#4053B8" stroke-width="3.5" marker-end="url(#arrB-2301-01)"/>
      <use href="#f1bact-2301-01" x="150" y="90"/><use href="#f1bact-2301-01" x="150" y="126"/>
      <line x1="183" y1="108" x2="207" y2="108" stroke="#4053B8" stroke-width="3.5" marker-end="url(#arrB-2301-01)"/>
      <use href="#f1bact-2301-01" x="245" y="70"/><use href="#f1bact-2301-01" x="245" y="95"/><use href="#f1bact-2301-01" x="245" y="121"/><use href="#f1bact-2301-01" x="245" y="146"/>
      <text x="55" y="176" text-anchor="middle" font-size="11" font-weight="800" fill="#2E3E96">1개</text>
      <text x="150" y="176" text-anchor="middle" font-size="11" font-weight="800" fill="#2E3E96">2개</text>
      <text x="245" y="176" text-anchor="middle" font-size="11" font-weight="800" fill="#2E3E96">4개 …</text>
      <use href="#f1pill-2301-01" x="55" y="210"/>
      <text x="55" y="236" text-anchor="middle" font-size="11" fill="#5B6B77">항생제</text>
      <line x1="84" y1="210" x2="112" y2="210" stroke="#4053B8" stroke-width="3.5" marker-end="url(#arrB-2301-01)"/>
      <g transform="translate(150,210)" opacity="0.55"><ellipse rx="20" ry="9" fill="#C7CCD6" stroke="#8A949E" stroke-width="1.4" stroke-dasharray="3 2"/></g>
      <g stroke="#D6455D" stroke-width="3" stroke-linecap="round"><line x1="140" y1="200" x2="160" y2="220"/><line x1="160" y1="200" x2="140" y2="220"/></g>
      <text x="174" y="206" font-size="12" font-weight="900" fill="#2E7A54">세균이 죽는다</text>
      <text x="174" y="223" font-size="11" font-weight="800" fill="#2E7A54">항생제 효과 있음</text>

      <!-- 바이러스 -->
      <text x="450" y="46" text-anchor="middle" font-size="12" font-weight="900" fill="#B0483A">바이러스 — 숙주 세포 안에서만 늘어난다</text>
      <text x="450" y="62" text-anchor="middle" font-size="11" fill="#5B6B77">감기 · 독감 · 코로나19</text>
      <circle cx="445" cy="118" r="48" fill="#FFF6D6" stroke="#E1C15A" stroke-width="1.8"/>
      <circle cx="428" cy="120" r="13" fill="#F0D98A" stroke="#D9B84F" stroke-width="1"/>
      <text x="445" y="158" text-anchor="middle" font-size="11" fill="#8A6D1E" font-weight="800">세포 안에서 복제</text>
      <text x="445" y="181" text-anchor="middle" font-size="11" fill="#5B6B77">숙주 세포</text>
      <use href="#f1vir-2301-01" x="350" y="98"/>
      <line x1="366" y1="104" x2="392" y2="110" stroke="#D6455D" stroke-width="3.5" marker-end="url(#arrRd-2301-01)"/>
      <text x="352" y="79" text-anchor="middle" font-size="11" font-weight="800" fill="#B0483A">침입</text>
      <use href="#f1virS-2301-01" x="457" y="98"/><use href="#f1virS-2301-01" x="473" y="114"/><use href="#f1virS-2301-01" x="455" y="128"/><use href="#f1virS-2301-01" x="470" y="140"/><use href="#f1virS-2301-01" x="442" y="140"/><use href="#f1virS-2301-01" x="482" y="98"/>
      <line x1="496" y1="118" x2="524" y2="112" stroke="#D6455D" stroke-width="3.5" marker-end="url(#arrRd-2301-01)"/>
      <use href="#f1vir-2301-01" x="548" y="90"/><use href="#f1vir-2301-01" x="574" y="116"/><use href="#f1vir-2301-01" x="546" y="136"/>
      <text x="592" y="166" text-anchor="end" font-size="11" font-weight="800" fill="#B0483A">밖으로 나와 퍼진다</text>
      <use href="#f1pill-2301-01" x="340" y="210"/>
      <text x="340" y="236" text-anchor="middle" font-size="11" fill="#5B6B77">항생제</text>
      <line x1="368" y1="210" x2="394" y2="210" stroke="#4053B8" stroke-width="3.5" marker-end="url(#arrB-2301-01)"/>
      <use href="#f1vir-2301-01" x="418" y="210"/>
      <text x="444" y="206" font-size="12" font-weight="900" fill="#B0483A">바이러스는 그대로</text>
      <text x="444" y="223" font-size="11" font-weight="800" fill="#B0483A">항생제 효과 없음</text>
    </svg>