<svg width="600" height="290" viewBox="0 0 620 300" font-family="PC Sans"><defs><marker id="arrG-2302-02" markerWidth="8" markerHeight="8" refX="6" refY="3" orient="auto"><path d="M0,0 L7,3 L0,6 Z" fill="#147D6F"/></marker><marker id="arrP-2302-02" markerWidth="8" markerHeight="8" refX="6" refY="3" orient="auto"><path d="M0,0 L7,3 L0,6 Z" fill="#4053B8"/></marker></defs>
      <rect x="0" y="0" width="620" height="300" rx="10" fill="#EAF0E4"/>
      <!-- 건물 블록 -->
      <g fill="#D5DAE0">
        <rect x="40" y="30" width="50" height="34" rx="2"/><rect x="110" y="20" width="40" height="30" rx="2"/>
        <rect x="150" y="150" width="44" height="28" rx="2"/><rect x="250" y="152" width="50" height="30" rx="2"/><rect x="360" y="150" width="44" height="28" rx="2"/>
        <rect x="150" y="222" width="44" height="24" rx="2"/><rect x="340" y="222" width="48" height="24" rx="2"/>
        <rect x="430" y="240" width="60" height="30" rx="2"/>
      </g>
      <!-- 도로 -->
      <g fill="none" stroke="#9AA3AC" stroke-width="22" stroke-linecap="round">
        <path d="M40,200 C100,115 180,100 270,100 C360,100 440,115 500,200"/>
        <path d="M40,200 C100,270 180,280 270,280 C360,280 440,270 500,200"/>
      </g>
      <g fill="none" stroke="#fff" stroke-width="1.5" stroke-dasharray="8 8">
        <path d="M40,200 C100,115 180,100 270,100 C360,100 440,115 500,200"/>
        <path d="M40,200 C100,270 180,280 270,280 C360,280 440,270 500,200"/>
      </g>
      <!-- 정체 구간 -->
      <path d="M180,108 C210,101 240,100 270,100 C300,100 330,101 360,108" fill="none" stroke="#E85D3A" stroke-width="24" opacity="0.45" stroke-linecap="round"/>
      <g fill="#D6455D">
        <rect x="190" y="99" width="20" height="11" rx="3"/><rect x="220" y="96" width="20" height="11" rx="3"/><rect x="250" y="95" width="20" height="11" rx="3"/>
        <rect x="280" y="95" width="20" height="11" rx="3"/><rect x="310" y="96" width="20" height="11" rx="3"/><rect x="340" y="99" width="20" height="11" rx="3"/>
      </g>
      <text x="270" y="136" text-anchor="middle" font-size="12" font-weight="800" fill="#B0483A">정체 — 차량이 많고 평균 속도가 낮다</text>
      <!-- 빠른 경로 -->
      <path d="M45,204 C100,270 180,280 270,280 C360,280 440,270 494,206" fill="none" stroke="#147D6F" stroke-width="5" stroke-dasharray="12 7" marker-end="url(#arrG-2302-02)"/>
      <g fill="#147D6F"><rect x="140" y="257" width="20" height="11" rx="3"/><rect x="330" y="268" width="20" height="11" rx="3"/></g>
      <text x="270" y="254" text-anchor="middle" font-size="12.5" font-weight="900" fill="#147D6F">15분 빠른 경로</text>
      <!-- 출발·도착 -->
      <circle cx="40" cy="200" r="9" fill="#4053B8" stroke="#fff" stroke-width="2"/>
      <text x="26" y="168" text-anchor="middle" font-size="12" font-weight="800" fill="#2E3E96">출발</text>
      <line x1="500" y1="200" x2="500" y2="176" stroke="#3D4C58" stroke-width="2"/><path d="M500,176 h18 l-5,7 l5,7 h-18 z" fill="#D6455D"/>
      <text x="500" y="238" text-anchor="middle" font-size="12" font-weight="800" fill="#2E3E96">도착</text>
      <!-- 서버 -->
      <rect x="182" y="4" width="256" height="66" rx="8" fill="#4053B8"/>
      <text x="310" y="26" text-anchor="middle" font-size="12.5" font-weight="900" fill="#fff">교통 데이터 서버</text>
      <text x="310" y="45" text-anchor="middle" font-size="11" font-weight="700" fill="#D9DFF5">② 분석 · ③ 예측</text>
      <text x="310" y="61" text-anchor="middle" font-size="11" font-weight="700" fill="#D9DFF5">과거 패턴 + 현재 흐름</text>
      <g stroke="#4053B8" stroke-width="2.2" stroke-dasharray="6 4" fill="none">
        <line x1="230" y1="94" x2="230" y2="72" marker-end="url(#arrP-2302-02)"/><line x1="270" y1="92" x2="270" y2="72" marker-end="url(#arrP-2302-02)"/><line x1="310" y1="94" x2="310" y2="72" marker-end="url(#arrP-2302-02)"/>
      </g>
      <text x="140" y="80" text-anchor="middle" font-size="12" font-weight="800" fill="#2E3E96">① 수집 — 위치·속도</text>
      <!-- 안내 -->
      <path d="M405,40 C470,40 520,80 555,128" fill="none" stroke="#147D6F" stroke-width="3" marker-end="url(#arrG-2302-02)"/>
      <text x="490" y="58" text-anchor="middle" font-size="12" font-weight="800" fill="#147D6F">④ 안내</text>
      <rect x="520" y="130" width="80" height="160" rx="10" fill="#3D4C58"/>
      <rect x="527" y="140" width="66" height="140" rx="4" fill="#fff"/>
      <text x="560" y="182" text-anchor="middle" font-size="17" font-weight="900" fill="#147D6F">15분</text>
      <text x="560" y="204" text-anchor="middle" font-size="11.5" font-weight="700" fill="#3D4C58">빠른 경로로</text>
      <text x="560" y="220" text-anchor="middle" font-size="11.5" font-weight="700" fill="#3D4C58">안내합니다</text>
      <path d="M536,262 C546,240 574,240 584,262" fill="none" stroke="#147D6F" stroke-width="3" stroke-dasharray="6 4"/>
      <circle cx="536" cy="262" r="4" fill="#4053B8"/><circle cx="584" cy="262" r="4" fill="#D6455D"/>
    </svg>